<svg version="1" xmlns="http://www.w3.org/2000/svg" width="1333.333" height="1333.333" viewBox="0 0 1000.000000 1000.000000"><path d="M0 500v500h1000V0H0v500zm727-259.4c24.6 5.5 45.5 26.3 51.9 51.6 1 4 2.2 7.3 2.7 7.5.5.1 8.8 1.2 18.4 2.3 24.7 2.9 49.8 6.9 54 8.6 1.9.8 4.8 2.7 6.4 4.2 8.9 8.4 7.3 25.8-4.5 49.4l-4.8 9.6-5.3 1.6c-2.9.8-59.3 16.9-125.2 35.6-66 18.8-121 34.8-122.1 35.6-2.8 1.8-4.5 5.6-4.5 10 0 5 5.3 10.4 10.3 10.4 2 0 53.4-14.2 114.3-31.5 60.8-17.4 110.8-31.4 111.1-31.2.5.6-9.2 13.1-21.2 27.2-45.1 53.1-110.8 113.3-183.2 167.8L607.1 613l21.1 33.3c11.6 18.2 26 40.9 32 50.4l10.9 17.2 41.2.3c45.2.3 45.5.4 52 6.6 9.9 9.4 9.7 26.2-.5 34.7-7.4 6.3-3.6 6-80.8 6.3l-70.5.2-41-47.9c-22.5-26.4-41.4-48-41.8-48-.5-.1-8.7 4.6-18.2 10.4-9.5 5.7-20.4 12-24.1 13.8-12.5 6.2-11.7 6.2-37.6 2.8-12.8-1.6-27.6-3.5-32.8-4.1-5.2-.6-11.3-1.3-13.5-1.7l-3.9-.5 8.9-3.3c30.5-10.9 50-29.3 55.6-52.5 2.1-8.5 1.6-23.9-1-34.5-11.6-45.7-51.5-72.2-120.1-79.6-13.1-1.4-51.8-1.7-65.8-.5l-9.4.8 9-11.9C348.4 410.4 445 345.2 557.3 316c23.4-6.1 43.1-9.9 76.6-14.7l5.4-.8 1.7-7.3c1-4 3.7-11.2 6-16 3.5-7 6-10.4 12.9-17.3 18.7-18.7 41-25.1 67.1-19.3zM341 540.1c38.2 3.4 68.8 15.6 85 33.6 5.8 6.5 12.2 18.8 14.5 27.8 2.4 9 2.2 21.7-.4 28.7-8.3 21.9-35.8 35.2-88.3 42.5-9.8 1.3-20.6 1.7-53.6 1.8l-41.2.2-2.5 2.3c-5.1 4.8-5.2 11.4-.3 16.7 2.7 2.8 2.5 2.8 36.8 5.8 109.2 9.7 202.3 21.4 230.7 29 10.5 2.8 20.4 7.5 31.3 14.8 9.1 6.1 22.9 16.9 23 17.9 0 .5-66.3.8-147.2.8-160.1 0-160.4 0-185.7-5.6-47.9-10.7-85.8-37.4-101.6-71.8-5.9-12.6-7.8-22.9-7.2-38.1.5-14.6 2.4-21.9 8.7-34.5 18.3-36.3 63.8-64 116-70.6 23.2-2.9 58.4-3.5 82-1.3z"/><path d="M705 286.2c-13.6 2.4-22.5 18.4-17.5 31.4 3.8 10.1 11.9 15.7 22.5 15.8 7.9 0 13.1-2.4 18.4-8.6 14.7-17.2-.8-42.8-23.4-38.6z"/></svg>