<svg data-v-fde0c5aa="" xmlns="http://www.w3.org/2000/svg" viewBox="0 0 300 300" class="iconAboveSlogan"><!----><defs data-v-fde0c5aa=""><!----></defs><rect data-v-fde0c5aa="" fill="#434190" x="0" y="0" width="300px" height="300px" class="logo-background-square"></rect><defs data-v-fde0c5aa=""><!----></defs><g data-v-fde0c5aa="" id="7e2745f5-2db3-4bfb-89d0-6c373d63a402" fill="#EAE6FE" transform="matrix(2.787307024002075,0,0,2.787307024002075,19.49828470763175,149.22699460723607)"><path d="M2.45 14.15C4.31 14.15 5.10 12.96 5.10 11.26L5.10 4.20L3.78 4.20L3.78 11.27C3.78 12.22 3.43 12.87 2.44 12.87C1.95 12.87 1.43 12.59 1.01 12.14L0.18 13.13C0.74 13.73 1.58 14.15 2.45 14.15ZM10.07 14.11C12.18 14.11 13.64 12.45 13.64 10.50C13.64 8.55 12.18 6.89 10.07 6.89C7.95 6.89 6.50 8.55 6.50 10.50C6.50 12.45 7.95 14.11 10.07 14.11ZM10.07 12.80C8.75 12.80 7.84 11.73 7.84 10.49C7.84 9.25 8.75 8.20 10.07 8.20C11.41 8.20 12.28 9.25 12.28 10.49C12.28 11.73 11.41 12.80 10.07 12.80ZM19.00 6.90C17.96 6.90 17.14 7.41 16.59 8.13L16.59 2.80L15.27 2.80L15.27 14L16.59 14L16.59 12.85C17.14 13.59 17.96 14.10 19.00 14.10C20.94 14.10 22.27 12.52 22.27 10.50C22.27 8.48 20.94 6.90 19.00 6.90ZM18.77 12.81C17.51 12.81 16.60 11.73 16.60 10.50C16.60 9.27 17.51 8.18 18.77 8.18C20.03 8.18 20.92 9.21 20.92 10.50C20.92 11.77 20.03 12.81 18.77 12.81ZM30.21 4.20L30.21 8.41L25.37 8.41L25.37 4.20L24.04 4.20L24.04 14L25.37 14L25.37 9.70L30.21 9.70L30.21 14L31.54 14L31.54 4.20ZM38.37 7L38.37 10.82C38.37 12.21 37.65 12.94 36.67 12.94C35.67 12.94 34.96 12.21 34.96 10.82L34.96 7L33.64 7L33.64 11.02C33.64 13.10 34.89 14.14 36.26 14.14C37.23 14.14 37.97 13.68 38.37 13.02L38.37 14L39.69 14L39.69 7ZM45.19 6.86C44.23 6.86 43.48 7.32 43.08 7.98L43.08 7L41.76 7L41.76 14L43.08 14L43.08 10.18C43.08 8.79 43.81 8.06 44.79 8.06C45.78 8.06 46.49 8.79 46.49 10.18L46.49 14L47.81 14L47.81 9.98C47.81 7.90 46.56 6.86 45.19 6.86ZM52.82 7L51.38 7L51.38 5.12L50.06 5.12L50.06 7L49.17 7L49.17 8.26L50.06 8.26L50.06 14L51.38 14L51.38 8.26L52.82 8.26ZM58.81 8.68C59.42 8.23 59.77 7.55 59.77 6.73C59.77 5.40 58.83 4.20 56.90 4.20L54.19 4.20L54.19 14L57.40 14C59.40 14 60.45 12.61 60.45 11.19C60.45 10.01 59.81 9.11 58.81 8.68ZM56.81 5.50C57.82 5.50 58.42 6.06 58.42 6.86C58.42 7.63 57.81 8.27 56.80 8.27L55.52 8.27L55.52 5.50ZM57.30 12.70L55.52 12.70L55.52 9.59L57.30 9.59C58.42 9.59 59.07 10.26 59.07 11.13C59.07 12.00 58.41 12.70 57.30 12.70ZM66.82 7L66.82 10.82C66.82 12.21 66.09 12.94 65.11 12.94C64.12 12.94 63.41 12.21 63.41 10.82L63.41 7L62.09 7L62.09 11.02C62.09 13.10 63.34 14.14 64.71 14.14C65.67 14.14 66.42 13.68 66.82 13.02L66.82 14L68.14 14L68.14 7ZM75.45 2.80L75.45 8.12C74.90 7.39 74.09 6.90 73.05 6.90C71.11 6.90 69.78 8.48 69.78 10.50C69.78 12.52 71.11 14.10 73.05 14.10C74.09 14.10 74.90 13.61 75.45 12.88L75.45 14L76.76 14L76.76 2.80ZM73.28 12.82C72.02 12.82 71.13 11.79 71.13 10.50C71.13 9.23 72.02 8.19 73.28 8.19C74.54 8.19 75.45 9.27 75.45 10.50C75.45 11.73 74.54 12.82 73.28 12.82ZM84.07 2.80L84.07 8.12C83.52 7.39 82.71 6.90 81.68 6.90C79.73 6.90 78.40 8.48 78.40 10.50C78.40 12.52 79.73 14.10 81.68 14.10C82.71 14.10 83.52 13.61 84.07 12.88L84.07 14L85.39 14L85.39 2.80ZM81.90 12.82C80.64 12.82 79.76 11.79 79.76 10.50C79.76 9.23 80.64 8.19 81.90 8.19C83.16 8.19 84.07 9.27 84.07 10.50C84.07 11.73 83.16 12.82 81.90 12.82ZM92.04 7L89.91 12.46L87.77 7L86.34 7L89.25 13.94L88.02 16.80L89.36 16.80L93.46 7Z"></path></g><defs data-v-fde0c5aa=""><!----></defs><g data-v-fde0c5aa="" id="e654b21b-3c7a-47cb-bfcf-5e0802307ffa" stroke="none" fill="#38B2AC" transform="matrix(0.7281392216682434,0,0,0.7281392216682434,113.84488703223404,76.9750593348258)"><path d="M53.893 81.15c-4.05-1.67-26.459-3.809-35.562-4.562a32.449 32.449 0 0 1-.641-.053 1.517 1.517 0 0 1 .266-3.02l.831.07c5.337.385 17.599.29 21.787-4.13 1.196-1.264 1.64-2.8 1.356-4.698-.39-2.606-1.633-4.613-3.801-6.134-5.812-4.079-16.409-3.395-21.744-2.721l-.012.019C7.378 57.531.706 63.342.706 70.283c0 7.783 8.385 14.276 19.037 14.882l.025.055 1.63.005 38.571-.002c-1.705-1.48-3.957-3.201-6.076-4.073z"></path><path d="M63.247 42.95l33.241-9.473c2.829-4.857 2.979-8.185-.527-8.779-3.044-.517-5.981-.89-8.828-1.15-.644-4.639-4.615-8.213-9.431-8.213-4.851 0-8.847 3.627-9.444 8.316-25.467 2.843-40.835 16.656-49.636 28.956 6.13-.542 15.464-.521 21.248 3.537 2.845 1.995 4.546 4.744 5.058 8.167.424 2.841-.301 5.273-2.155 7.231-1.646 1.738-4.081 2.915-6.795 3.704 3.447.381 6.931.805 10.003 1.248.917-.254 1.734-.571 2.417-.965a166.368 166.368 0 0 0 5.2-3.138L64.62 85.226h18.174a3.176 3.176 0 1 0 0-6.353H72.54l-8.557-13.511c13.106-9.529 24.041-20.054 29.929-28.023l-29.841 8.504a1.505 1.505 0 0 1-.824-2.893zm14.455-21.278a3.193 3.193 0 1 1 0 6.386 3.193 3.193 0 0 1 0-6.386z"></path></g><defs data-v-fde0c5aa=""><!----></defs><g data-v-fde0c5aa="" id="e507a17e-fc6a-4876-b7c0-6f224cb2f8ad" fill="#EAE6FE" transform="matrix(0.5725023150444031,0,0,0.5725023150444031,52.09924839685914,203.88396688147762)"><path d="M12.57 4.44C12.75 4.42 12.85 4.34 12.85 4.19L12.85 3.92L11.68 3.92L11.17 3.92C11.10 3.92 11.06 3.92 11.02 3.93C10.98 3.95 10.95 3.99 10.91 4.05L7.01 10.92C6.97 10.99 6.94 11.06 6.92 11.13C6.89 11.20 6.86 11.28 6.83 11.35C6.78 11.20 6.72 11.06 6.65 10.93L2.65 4.05C2.60 3.99 2.58 3.95 2.53 3.93C2.49 3.92 2.45 3.92 2.38 3.92L1.89 3.92L0.70 3.92L0.70 4.19C0.70 4.34 0.80 4.42 0.98 4.44L1.12 4.44C1.19 4.44 1.29 4.45 1.43 4.45C1.57 4.45 1.72 4.47 1.89 4.47L1.89 13.26C1.72 13.26 1.57 13.27 1.43 13.27C1.29 13.27 1.19 13.29 1.12 13.29L0.98 13.29C0.80 13.30 0.70 13.38 0.70 13.54L0.70 13.82L1.89 13.82L2.51 13.82L3.72 13.82L3.72 13.54C3.72 13.38 3.63 13.30 3.44 13.29L3.30 13.29C3.23 13.29 3.12 13.27 2.98 13.27C2.84 13.27 2.67 13.26 2.51 13.26L2.51 5.38C2.51 5.25 2.51 5.12 2.49 4.98L6.50 11.91C6.57 12.04 6.66 12.10 6.78 12.10L6.89 12.10C7.01 12.10 7.10 12.04 7.17 11.91L11.06 4.98C11.05 5.12 11.05 5.25 11.05 5.38L11.05 13.26C10.88 13.26 10.71 13.27 10.57 13.27C10.43 13.27 10.32 13.29 10.25 13.29L10.11 13.29C9.93 13.30 9.83 13.38 9.83 13.54L9.83 13.82L11.05 13.82L11.68 13.82L12.85 13.82L12.85 13.54C12.85 13.38 12.75 13.30 12.57 13.29L12.45 13.29C12.38 13.29 12.26 13.27 12.12 13.27C11.98 13.27 11.84 13.26 11.68 13.26L11.68 4.47C11.84 4.47 11.98 4.45 12.12 4.45C12.26 4.45 12.38 4.44 12.45 4.44ZM30.49 13.22L30.03 13.17L26.25 3.91L25.54 3.91L21.74 13.17L21.29 13.22C21.11 13.23 21.03 13.33 21.03 13.50L21.03 13.82L21.48 13.82L21.77 13.82L22.02 13.82L22.12 13.82L23.44 13.82L23.44 13.50C23.44 13.31 23.32 13.23 23.11 13.22C23.10 13.22 23.07 13.20 23.03 13.20C22.99 13.20 22.93 13.19 22.83 13.19C22.74 13.19 22.61 13.19 22.47 13.17L23.45 10.75L23.52 10.57L28.25 10.57L28.32 10.75L29.30 13.17C29.16 13.19 29.05 13.19 28.95 13.19C28.85 13.19 28.78 13.20 28.74 13.20C28.70 13.20 28.67 13.22 28.66 13.22C28.45 13.23 28.34 13.31 28.34 13.50L28.34 13.82L29.65 13.82L29.75 13.82L30.02 13.82L30.30 13.82L30.76 13.82L30.76 13.50C30.76 13.33 30.67 13.23 30.49 13.22ZM25.69 5.22C25.72 5.14 25.76 5.04 25.79 4.94C25.82 4.84 25.86 4.75 25.89 4.63C25.91 4.75 25.96 4.84 25.98 4.94C26.01 5.04 26.05 5.12 26.08 5.21L28.04 10.04L23.74 10.04ZM47.82 3.92L47.19 3.92L45.98 3.92L45.98 4.19C45.98 4.34 46.07 4.42 46.26 4.44L46.40 4.44C46.47 4.44 46.58 4.45 46.72 4.45C46.86 4.45 47.03 4.47 47.19 4.47L47.19 12.22C47.19 12.35 47.19 12.49 47.21 12.63L40.80 4.05C40.75 3.99 40.73 3.95 40.68 3.93C40.64 3.92 40.60 3.91 40.53 3.91L40.18 3.91L38.99 3.91L38.99 4.19C38.99 4.34 39.09 4.42 39.27 4.44L39.41 4.44C39.48 4.44 39.58 4.45 39.72 4.45C39.86 4.45 40.01 4.47 40.18 4.47L40.18 13.26C40.01 13.26 39.86 13.27 39.72 13.27C39.58 13.27 39.48 13.29 39.41 13.29L39.27 13.29C39.09 13.30 38.99 13.38 38.99 13.54L38.99 13.82L40.18 13.82L40.80 13.82L42.01 13.82L42.01 13.54C42.01 13.38 41.92 13.30 41.73 13.29L41.59 13.29C41.52 13.29 41.40 13.27 41.26 13.27C41.12 13.27 40.96 13.26 40.80 13.26L40.80 5.49C40.80 5.36 40.80 5.22 40.78 5.08L47.22 13.68C47.29 13.78 47.36 13.82 47.47 13.82L47.82 13.82L47.82 4.47C47.99 4.47 48.13 4.45 48.27 4.45C48.41 4.45 48.52 4.44 48.59 4.44L48.72 4.44C48.90 4.42 49.00 4.34 49.00 4.19L49.00 3.92ZM66.33 13.22L65.87 13.17L62.09 3.91L61.38 3.91L57.58 13.17L57.13 13.22C56.95 13.23 56.87 13.33 56.87 13.50L56.87 13.82L57.32 13.82L57.61 13.82L57.86 13.82L57.96 13.82L59.28 13.82L59.28 13.50C59.28 13.31 59.16 13.23 58.95 13.22C58.94 13.22 58.91 13.20 58.87 13.20C58.83 13.20 58.77 13.19 58.67 13.19C58.58 13.19 58.45 13.19 58.31 13.17L59.29 10.75L59.36 10.57L64.09 10.57L64.16 10.75L65.14 13.17C65.00 13.19 64.89 13.19 64.79 13.19C64.69 13.19 64.62 13.20 64.58 13.20C64.54 13.20 64.51 13.22 64.50 13.22C64.29 13.23 64.18 13.31 64.18 13.50L64.18 13.82L65.49 13.82L65.59 13.82L65.86 13.82L66.14 13.82L66.60 13.82L66.60 13.50C66.60 13.33 66.51 13.23 66.33 13.22ZM61.53 5.22C61.56 5.14 61.60 5.04 61.63 4.94C61.66 4.84 61.70 4.75 61.73 4.63C61.75 4.75 61.80 4.84 61.82 4.94C61.85 5.04 61.89 5.12 61.92 5.21L63.88 10.04L59.58 10.04ZM79.88 9.32L79.88 9.72C79.88 9.76 79.91 9.80 79.94 9.83C79.97 9.86 80.01 9.87 80.07 9.87L81.97 9.87L81.97 12.54C81.75 12.67 81.52 12.78 81.31 12.88C81.10 12.98 80.86 13.08 80.63 13.15C80.39 13.22 80.12 13.27 79.84 13.30C79.56 13.33 79.25 13.34 78.92 13.34C78.30 13.34 77.74 13.24 77.24 13.03C76.73 12.82 76.30 12.53 75.94 12.15C75.57 11.77 75.29 11.30 75.10 10.74C74.90 10.18 74.79 9.56 74.79 8.86C74.79 8.18 74.90 7.56 75.10 7.01C75.29 6.47 75.57 5.99 75.94 5.61C76.30 5.24 76.75 4.94 77.27 4.73C77.78 4.52 78.36 4.42 79.00 4.42C80.18 4.42 81.12 4.58 81.80 4.90C81.84 5.81 81.87 6.31 81.87 6.41C81.89 6.64 81.98 6.75 82.18 6.75L82.52 6.75L82.52 4.51C82.08 4.31 81.52 4.14 80.82 4.00C80.12 3.86 79.53 3.81 79.03 3.81C78.27 3.81 77.59 3.92 76.97 4.16C76.36 4.40 75.84 4.75 75.40 5.18C74.97 5.61 74.65 6.15 74.41 6.78C74.17 7.39 74.06 8.09 74.06 8.86C74.06 9.63 74.17 10.32 74.41 10.95C74.65 11.58 74.97 12.10 75.39 12.54C75.81 12.99 76.33 13.33 76.92 13.57C77.50 13.80 78.15 13.93 78.86 13.93C79.28 13.93 79.66 13.90 80.01 13.86C80.36 13.80 80.68 13.73 80.99 13.65C81.30 13.55 81.58 13.44 81.84 13.30C82.11 13.16 82.36 13.01 82.61 12.84L82.61 9.32ZM92.20 3.92L91.01 3.92L91.01 4.19C91.01 4.34 91.11 4.42 91.29 4.44L91.43 4.44C91.50 4.44 91.60 4.45 91.74 4.45C91.88 4.45 92.04 4.47 92.20 4.47L92.20 13.26C92.04 13.26 91.88 13.27 91.74 13.27C91.60 13.27 91.50 13.29 91.43 13.29L91.29 13.29C91.11 13.30 91.03 13.38 91.03 13.54L91.03 13.82L92.20 13.82L98.14 13.82L98.14 13.22L98.14 11.76L97.79 11.76C97.59 11.76 97.51 11.89 97.50 12.11C97.50 12.14 97.48 12.19 97.48 12.29C97.48 12.39 97.48 12.53 97.47 12.74C97.45 12.95 97.44 13.09 97.44 13.22L92.92 13.22L92.92 9.09L96.87 9.09L96.87 8.51L92.92 8.51L92.92 4.51L97.44 4.51C97.47 5.12 97.50 5.50 97.50 5.63C97.51 5.85 97.59 5.96 97.79 5.96L98.14 5.96L98.14 4.51L98.14 3.92ZM125.23 3.92L125.16 3.92L124.60 3.92L124.49 3.92L123.09 3.92L123.09 4.19C123.09 4.34 123.19 4.42 123.37 4.44L123.48 4.44C123.54 4.44 123.61 4.45 123.72 4.45C123.83 4.45 123.96 4.47 124.10 4.47L121.51 8.64C121.44 8.75 121.38 8.85 121.34 8.95C121.30 9.04 121.25 9.16 121.21 9.25C121.17 9.16 121.13 9.04 121.09 8.95C121.04 8.85 120.99 8.75 120.92 8.64L118.31 4.47C118.45 4.47 118.58 4.45 118.69 4.45C118.80 4.45 118.89 4.44 118.94 4.44L119.04 4.44C119.22 4.42 119.32 4.34 119.32 4.19L119.32 3.92L117.92 3.92L117.81 3.92L117.25 3.92L117.18 3.92L116.73 3.92L116.73 4.19C116.73 4.34 116.83 4.42 117.01 4.44C117.25 4.45 117.43 4.47 117.53 4.47L120.85 9.73L120.85 13.26C120.68 13.26 120.53 13.27 120.39 13.27C120.25 13.27 120.15 13.29 120.08 13.29L119.95 13.29C119.77 13.30 119.67 13.38 119.67 13.54L119.67 13.82L120.85 13.82L121.56 13.82L122.74 13.82L122.74 13.54C122.74 13.38 122.65 13.30 122.47 13.29L122.33 13.29C122.26 13.29 122.16 13.27 122.02 13.27C121.88 13.27 121.73 13.26 121.56 13.26L121.56 9.73L124.88 4.47C124.99 4.47 125.16 4.45 125.40 4.44C125.58 4.42 125.68 4.34 125.68 4.19L125.68 3.92ZM142.42 8.86C142.42 8.11 142.30 7.41 142.07 6.79C141.85 6.17 141.53 5.64 141.11 5.19C140.69 4.75 140.20 4.40 139.62 4.16C139.05 3.92 138.39 3.79 137.69 3.79C136.99 3.79 136.36 3.92 135.79 4.16C135.21 4.40 134.71 4.75 134.29 5.19C133.87 5.64 133.55 6.17 133.32 6.79C133.10 7.41 132.97 8.11 132.97 8.86C132.97 9.63 133.10 10.33 133.32 10.95C133.55 11.56 133.87 12.10 134.29 12.54C134.71 12.99 135.21 13.33 135.79 13.57C136.36 13.80 136.99 13.93 137.69 13.93C138.39 13.93 139.05 13.80 139.62 13.57C140.20 13.33 140.69 12.99 141.11 12.54C141.53 12.10 141.85 11.56 142.07 10.95C142.30 10.33 142.42 9.63 142.42 8.86ZM141.67 8.86C141.67 9.56 141.58 10.18 141.39 10.72C141.19 11.27 140.92 11.75 140.57 12.12C140.22 12.50 139.80 12.81 139.31 13.01C138.82 13.20 138.29 13.30 137.69 13.30C137.10 13.30 136.57 13.20 136.08 13.01C135.59 12.81 135.17 12.50 134.82 12.12C134.47 11.75 134.19 11.27 133.99 10.72C133.80 10.18 133.71 9.56 133.71 8.86C133.71 8.18 133.80 7.55 133.99 7.00C134.19 6.45 134.47 5.98 134.82 5.60C135.17 5.22 135.59 4.91 136.08 4.72C136.57 4.52 137.10 4.41 137.69 4.41C138.29 4.41 138.82 4.52 139.31 4.72C139.80 4.91 140.22 5.22 140.57 5.60C140.92 5.98 141.19 6.45 141.39 7.00C141.58 7.55 141.67 8.18 141.67 8.86ZM158.66 3.92L157.95 3.92L156.59 3.92L156.59 4.19C156.59 4.34 156.69 4.42 156.87 4.44L157.04 4.44C157.14 4.44 157.28 4.45 157.44 4.45C157.61 4.45 157.78 4.47 157.95 4.47L157.95 10.04C157.95 10.50 157.88 10.92 157.74 11.33C157.60 11.73 157.40 12.08 157.14 12.38C156.87 12.67 156.56 12.89 156.18 13.06C155.81 13.23 155.39 13.31 154.91 13.31C154.43 13.31 154.00 13.23 153.62 13.06C153.24 12.89 152.92 12.66 152.67 12.36C152.40 12.07 152.22 11.72 152.08 11.33C151.94 10.93 151.87 10.50 151.87 10.04L151.87 4.47C152.04 4.47 152.21 4.45 152.38 4.45C152.54 4.45 152.68 4.44 152.78 4.44L152.95 4.44C153.13 4.42 153.23 4.34 153.23 4.19L153.23 3.92L151.87 3.92L151.16 3.92L149.98 3.92L149.98 4.19C149.98 4.34 150.07 4.42 150.25 4.44L150.39 4.44C150.46 4.44 150.56 4.45 150.70 4.45C150.84 4.45 150.99 4.47 151.16 4.47L151.16 10.04C151.16 10.58 151.24 11.09 151.41 11.56C151.58 12.04 151.83 12.46 152.15 12.81C152.47 13.16 152.88 13.44 153.34 13.64C153.80 13.83 154.34 13.93 154.91 13.93C155.48 13.93 156.00 13.83 156.46 13.64C156.93 13.44 157.33 13.16 157.65 12.81C157.98 12.46 158.23 12.04 158.40 11.56C158.56 11.09 158.66 10.58 158.66 10.04L158.66 4.47C158.83 4.47 158.97 4.45 159.11 4.45C159.25 4.45 159.36 4.44 159.43 4.44L159.56 4.44C159.74 4.42 159.84 4.34 159.84 4.19L159.84 3.92ZM175.85 13.29L175.76 13.29L175.57 13.29C175.49 13.29 175.41 13.27 175.32 13.27L172.35 9.53C172.27 9.42 172.16 9.32 172.05 9.25C172.48 9.21 172.87 9.11 173.22 8.96C173.57 8.81 173.85 8.61 174.10 8.37C174.34 8.13 174.54 7.85 174.66 7.55C174.79 7.24 174.86 6.89 174.86 6.51C174.86 5.66 174.58 5.03 174.02 4.58C173.46 4.14 172.61 3.92 171.46 3.92L169.05 3.92L167.87 3.92L167.87 4.19C167.87 4.34 167.96 4.42 168.14 4.44L168.28 4.44C168.35 4.44 168.45 4.45 168.59 4.45C168.73 4.45 168.88 4.47 169.05 4.47L169.05 13.26C168.88 13.26 168.73 13.27 168.59 13.27C168.45 13.27 168.35 13.29 168.28 13.29L168.14 13.29C167.96 13.30 167.86 13.38 167.86 13.54L167.86 13.82L169.05 13.82L169.76 13.82L170.94 13.82L170.94 13.54C170.94 13.38 170.84 13.30 170.66 13.29L170.52 13.29C170.45 13.29 170.35 13.27 170.21 13.27C170.07 13.27 169.93 13.26 169.76 13.26L169.76 9.34L170.94 9.34C171.14 9.34 171.28 9.35 171.36 9.39C171.44 9.44 171.53 9.52 171.61 9.62L174.79 13.64C174.85 13.71 174.89 13.75 174.94 13.78C175.00 13.80 175.07 13.82 175.14 13.82L175.21 13.82L175.76 13.82L176.12 13.82L176.12 13.54C176.12 13.38 176.04 13.30 175.85 13.29ZM171.36 8.81L169.76 8.81L169.76 4.48L171.46 4.48C172.34 4.48 173.01 4.66 173.47 5.00C173.94 5.33 174.16 5.87 174.16 6.57C174.16 6.92 174.10 7.21 173.98 7.49C173.85 7.77 173.66 7.99 173.42 8.19C173.18 8.39 172.89 8.55 172.54 8.65C172.19 8.75 171.79 8.81 171.36 8.81ZM198.79 3.91L198.07 3.91L196.78 3.91L196.78 4.19C196.78 4.34 196.88 4.42 197.06 4.44L197.23 4.44C197.32 4.44 197.43 4.45 197.58 4.45C197.74 4.45 197.90 4.47 198.07 4.47L198.07 10.53C198.07 11.00 198.02 11.42 197.92 11.77C197.81 12.12 197.65 12.42 197.46 12.64C197.26 12.87 197.01 13.05 196.73 13.16C196.45 13.27 196.13 13.33 195.78 13.33C195.64 13.33 195.50 13.31 195.40 13.30C195.30 13.29 195.20 13.26 195.12 13.24C195.03 13.23 194.96 13.22 194.91 13.20C194.85 13.19 194.80 13.17 194.75 13.17C194.68 13.17 194.66 13.19 194.63 13.22C194.60 13.24 194.59 13.29 194.57 13.33C194.57 13.40 194.57 13.45 194.56 13.52C194.56 13.59 194.54 13.65 194.53 13.72C194.75 13.79 194.98 13.85 195.19 13.87C195.40 13.90 195.62 13.93 195.83 13.93C196.29 13.93 196.70 13.85 197.06 13.71C197.43 13.55 197.75 13.34 198.00 13.05C198.25 12.75 198.45 12.40 198.59 11.98C198.73 11.56 198.79 11.07 198.79 10.51L198.79 4.47C198.95 4.47 199.11 4.45 199.25 4.45C199.39 4.45 199.49 4.44 199.56 4.44L199.70 4.44C199.88 4.42 199.98 4.34 199.98 4.19L199.98 3.91ZM217.27 8.86C217.27 8.11 217.14 7.41 216.92 6.79C216.69 6.17 216.37 5.64 215.95 5.19C215.53 4.75 215.04 4.40 214.47 4.16C213.89 3.92 213.23 3.79 212.53 3.79C211.83 3.79 211.20 3.92 210.63 4.16C210.06 4.40 209.55 4.75 209.13 5.19C208.71 5.64 208.39 6.17 208.17 6.79C207.94 7.41 207.82 8.11 207.82 8.86C207.82 9.63 207.94 10.33 208.17 10.95C208.39 11.56 208.71 12.10 209.13 12.54C209.55 12.99 210.06 13.33 210.63 13.57C211.20 13.80 211.83 13.93 212.53 13.93C213.23 13.93 213.89 13.80 214.47 13.57C215.04 13.33 215.53 12.99 215.95 12.54C216.37 12.10 216.69 11.56 216.92 10.95C217.14 10.33 217.27 9.63 217.27 8.86ZM216.51 8.86C216.51 9.56 216.43 10.18 216.23 10.72C216.03 11.27 215.77 11.75 215.42 12.12C215.07 12.50 214.65 12.81 214.16 13.01C213.67 13.20 213.14 13.30 212.53 13.30C211.95 13.30 211.41 13.20 210.92 13.01C210.43 12.81 210.01 12.50 209.66 12.12C209.31 11.75 209.03 11.27 208.84 10.72C208.64 10.18 208.56 9.56 208.56 8.86C208.56 8.18 208.64 7.55 208.84 7.00C209.03 6.45 209.31 5.98 209.66 5.60C210.01 5.22 210.43 4.91 210.92 4.72C211.41 4.52 211.95 4.41 212.53 4.41C213.14 4.41 213.67 4.52 214.16 4.72C214.65 4.91 215.07 5.22 215.42 5.60C215.77 5.98 216.03 6.45 216.23 7.00C216.43 7.55 216.51 8.18 216.51 8.86ZM232.37 9.52C231.95 9.11 231.35 8.86 230.57 8.75C230.89 8.67 231.17 8.55 231.42 8.40C231.67 8.25 231.90 8.08 232.06 7.87C232.23 7.66 232.37 7.43 232.46 7.20C232.54 6.96 232.60 6.71 232.60 6.44C232.60 6.05 232.51 5.68 232.39 5.38C232.26 5.07 232.05 4.80 231.78 4.58C231.52 4.37 231.18 4.20 230.76 4.09C230.34 3.98 229.85 3.92 229.29 3.92L226.45 3.92L225.26 3.92L225.26 4.19C225.26 4.34 225.36 4.42 225.54 4.44L225.68 4.44C225.75 4.44 225.85 4.45 225.99 4.45C226.13 4.45 226.28 4.47 226.45 4.47L226.45 13.26C226.28 13.26 226.13 13.27 225.99 13.27C225.85 13.27 225.75 13.29 225.68 13.29L225.54 13.29C225.36 13.30 225.27 13.38 225.27 13.54L225.27 13.82L226.45 13.82L229.66 13.82C230.19 13.82 230.65 13.76 231.07 13.64C231.49 13.51 231.84 13.34 232.12 13.10C232.40 12.87 232.62 12.59 232.78 12.25C232.93 11.91 233.00 11.54 233.00 11.12C233.00 10.46 232.79 9.93 232.37 9.52ZM227.16 4.48L229.29 4.48C230.17 4.48 230.83 4.66 231.25 5.00C231.67 5.35 231.88 5.84 231.88 6.51C231.88 6.76 231.84 7.03 231.74 7.27C231.64 7.50 231.49 7.71 231.28 7.91C231.07 8.11 230.80 8.26 230.48 8.37C230.16 8.48 229.77 8.55 229.31 8.55L227.16 8.55ZM231.62 12.68C231.17 13.06 230.51 13.24 229.64 13.24L227.16 13.24L227.16 9.07L229.66 9.07C230.08 9.07 230.44 9.11 230.76 9.21C231.08 9.31 231.36 9.45 231.59 9.62C231.81 9.80 231.98 10.00 232.11 10.25C232.22 10.50 232.29 10.79 232.29 11.10C232.29 11.79 232.06 12.31 231.62 12.68ZM257.29 9.91C257.15 9.65 256.96 9.39 256.72 9.21C256.48 9.03 256.23 8.88 255.93 8.75C255.64 8.62 255.32 8.51 255.01 8.41C254.70 8.32 254.39 8.20 254.10 8.11C253.81 7.99 253.54 7.87 253.30 7.71C253.06 7.56 252.88 7.38 252.74 7.15C252.60 6.93 252.52 6.65 252.52 6.31C252.52 6.06 252.57 5.82 252.67 5.59C252.77 5.35 252.91 5.15 253.09 4.97C253.27 4.79 253.50 4.65 253.78 4.55C254.06 4.45 254.37 4.40 254.73 4.40C255.40 4.40 256.02 4.51 256.58 4.75C256.62 5.54 256.65 5.99 256.65 6.06C256.66 6.29 256.75 6.41 256.94 6.41L257.28 6.41L257.28 4.38C256.40 4.00 255.56 3.81 254.73 3.81C254.27 3.81 253.86 3.88 253.50 4.02C253.13 4.16 252.84 4.34 252.60 4.58C252.36 4.82 252.17 5.08 252.04 5.39C251.92 5.70 251.86 6.02 251.86 6.36C251.86 6.78 251.93 7.14 252.07 7.42C252.21 7.70 252.41 7.92 252.64 8.12C252.88 8.32 253.13 8.46 253.43 8.58C253.72 8.71 254.04 8.82 254.35 8.92C254.66 9.02 254.95 9.11 255.26 9.21C255.56 9.31 255.82 9.45 256.06 9.60C256.30 9.76 256.48 9.94 256.62 10.16C256.76 10.39 256.83 10.68 256.83 11.03C256.83 11.35 256.77 11.66 256.66 11.94C256.55 12.22 256.40 12.46 256.19 12.67C255.98 12.88 255.71 13.05 255.40 13.16C255.09 13.29 254.74 13.33 254.35 13.33C253.57 13.33 252.91 13.20 252.38 12.95C252.36 12.75 252.36 12.54 252.35 12.32C252.34 12.10 252.34 11.91 252.32 11.76C252.31 11.61 252.31 11.52 252.31 11.51C252.29 11.28 252.20 11.17 252 11.17L251.66 11.17L251.66 13.02L251.66 13.20L251.66 13.38C252.52 13.75 253.40 13.93 254.32 13.93C254.83 13.93 255.28 13.85 255.67 13.69C256.06 13.54 256.40 13.31 256.66 13.05C256.93 12.78 257.15 12.46 257.29 12.10C257.43 11.73 257.50 11.34 257.50 10.92C257.50 10.51 257.43 10.18 257.29 9.91ZM266.95 3.92L265.76 3.92L265.76 4.19C265.76 4.34 265.86 4.42 266.04 4.44L266.18 4.44C266.25 4.44 266.35 4.45 266.49 4.45C266.63 4.45 266.78 4.47 266.95 4.47L266.95 13.26C266.78 13.26 266.63 13.27 266.49 13.27C266.35 13.27 266.25 13.29 266.18 13.29L266.04 13.29C265.86 13.30 265.78 13.38 265.78 13.54L265.78 13.82L266.95 13.82L272.89 13.82L272.89 13.22L272.89 11.76L272.54 11.76C272.34 11.76 272.26 11.89 272.24 12.11C272.24 12.14 272.23 12.19 272.23 12.29C272.23 12.39 272.23 12.53 272.22 12.74C272.20 12.95 272.19 13.09 272.19 13.22L267.67 13.22L267.67 9.09L271.61 9.09L271.61 8.51L267.67 8.51L267.67 4.51L272.19 4.51C272.22 5.12 272.24 5.50 272.24 5.63C272.26 5.85 272.34 5.96 272.54 5.96L272.89 5.96L272.89 4.51L272.89 3.92ZM290.77 13.22L290.30 13.17L286.52 3.91L285.81 3.91L282.02 13.17L281.57 13.22C281.39 13.23 281.30 13.33 281.30 13.50L281.30 13.82L281.75 13.82L282.04 13.82L282.30 13.82L282.39 13.82L283.71 13.82L283.71 13.50C283.71 13.31 283.60 13.23 283.39 13.22C283.37 13.22 283.35 13.20 283.30 13.20C283.26 13.20 283.21 13.19 283.11 13.19C283.01 13.19 282.88 13.19 282.74 13.17L283.72 10.75L283.79 10.57L288.53 10.57L288.60 10.75L289.58 13.17C289.44 13.19 289.32 13.19 289.23 13.19C289.13 13.19 289.06 13.20 289.02 13.20C288.97 13.20 288.95 13.22 288.93 13.22C288.72 13.23 288.61 13.31 288.61 13.50L288.61 13.82L289.93 13.82L290.02 13.82L290.29 13.82L290.57 13.82L291.03 13.82L291.03 13.50C291.03 13.33 290.95 13.23 290.77 13.22ZM285.96 5.22C285.99 5.14 286.03 5.04 286.06 4.94C286.09 4.84 286.13 4.75 286.16 4.63C286.19 4.75 286.23 4.84 286.26 4.94C286.29 5.04 286.33 5.12 286.36 5.21L288.32 10.04L284.02 10.04ZM307.26 13.29L307.16 13.29L306.98 13.29C306.89 13.29 306.81 13.27 306.73 13.27L303.76 9.53C303.67 9.42 303.56 9.32 303.45 9.25C303.88 9.21 304.28 9.11 304.63 8.96C304.98 8.81 305.26 8.61 305.51 8.37C305.75 8.13 305.94 7.85 306.07 7.55C306.19 7.24 306.26 6.89 306.26 6.51C306.26 5.66 305.98 5.03 305.42 4.58C304.86 4.14 304.01 3.92 302.86 3.92L300.45 3.92L299.28 3.92L299.28 4.19C299.28 4.34 299.36 4.42 299.54 4.44L299.68 4.44C299.75 4.44 299.85 4.45 299.99 4.45C300.13 4.45 300.29 4.47 300.45 4.47L300.45 13.26C300.29 13.26 300.13 13.27 299.99 13.27C299.85 13.27 299.75 13.29 299.68 13.29L299.54 13.29C299.36 13.30 299.26 13.38 299.26 13.54L299.26 13.82L300.45 13.82L301.17 13.82L302.34 13.82L302.34 13.54C302.34 13.38 302.25 13.30 302.06 13.29L301.92 13.29C301.85 13.29 301.76 13.27 301.62 13.27C301.48 13.27 301.34 13.26 301.17 13.26L301.17 9.34L302.34 9.34C302.54 9.34 302.68 9.35 302.76 9.39C302.85 9.44 302.93 9.52 303.02 9.62L306.19 13.64C306.25 13.71 306.29 13.75 306.35 13.78C306.40 13.80 306.47 13.82 306.54 13.82L306.61 13.82L307.16 13.82L307.52 13.82L307.52 13.54C307.52 13.38 307.44 13.30 307.26 13.29ZM302.76 8.81L301.17 8.81L301.17 4.48L302.86 4.48C303.74 4.48 304.42 4.66 304.88 5.00C305.34 5.33 305.56 5.87 305.56 6.57C305.56 6.92 305.51 7.21 305.38 7.49C305.26 7.77 305.06 7.99 304.82 8.19C304.58 8.39 304.29 8.55 303.94 8.65C303.59 8.75 303.20 8.81 302.76 8.81ZM323.01 12.21C322.98 12.18 322.94 12.15 322.90 12.15C322.87 12.15 322.85 12.15 322.83 12.17C322.81 12.18 322.78 12.21 322.76 12.22C322.56 12.40 322.35 12.56 322.15 12.70C321.96 12.84 321.75 12.94 321.51 13.03C321.27 13.13 321.02 13.20 320.74 13.24C320.46 13.29 320.15 13.31 319.80 13.31C319.24 13.31 318.70 13.22 318.22 13.01C317.73 12.81 317.32 12.52 316.97 12.14C316.62 11.76 316.33 11.28 316.13 10.74C315.94 10.19 315.84 9.56 315.84 8.86C315.84 8.18 315.94 7.56 316.13 7.01C316.34 6.47 316.62 6.01 316.99 5.61C317.35 5.24 317.79 4.94 318.29 4.73C318.79 4.52 319.34 4.42 319.94 4.42C320.84 4.42 321.66 4.56 322.39 4.89C322.43 5.78 322.48 6.30 322.48 6.41C322.49 6.64 322.57 6.75 322.77 6.75L323.11 6.75L323.11 4.51C321.93 4.03 320.87 3.81 319.94 3.81C319.23 3.81 318.58 3.92 317.98 4.17C317.39 4.42 316.86 4.76 316.44 5.21C316.01 5.66 315.69 6.19 315.45 6.80C315.21 7.42 315.10 8.11 315.10 8.86C315.10 9.63 315.22 10.32 315.45 10.95C315.67 11.58 315.99 12.10 316.40 12.54C316.81 12.99 317.30 13.33 317.87 13.57C318.44 13.80 319.06 13.93 319.75 13.93C320.15 13.93 320.53 13.90 320.88 13.83C321.22 13.76 321.54 13.66 321.83 13.54C322.11 13.41 322.38 13.26 322.62 13.09C322.85 12.91 323.08 12.73 323.29 12.50ZM341.03 4.44C341.21 4.42 341.31 4.34 341.31 4.19L341.31 3.92L340.13 3.92L339.40 3.92L338.23 3.92L338.23 4.19C338.23 4.34 338.32 4.42 338.51 4.44L338.63 4.44C338.70 4.44 338.81 4.45 338.95 4.45C339.09 4.45 339.23 4.47 339.40 4.47L339.40 8.53L333.20 8.53L333.20 4.47C333.37 4.47 333.52 4.45 333.66 4.45C333.80 4.45 333.90 4.44 333.97 4.44L334.11 4.44C334.29 4.42 334.38 4.34 334.38 4.19L334.38 3.92L333.20 3.92L332.49 3.92L331.30 3.92L331.30 4.19C331.30 4.34 331.39 4.42 331.58 4.44L331.72 4.44C331.79 4.44 331.88 4.45 332.02 4.45C332.16 4.45 332.32 4.47 332.49 4.47L332.49 13.26C332.32 13.26 332.16 13.27 332.02 13.27C331.88 13.27 331.79 13.29 331.72 13.29L331.58 13.29C331.39 13.30 331.30 13.38 331.30 13.54L331.30 13.82L332.49 13.82L333.20 13.82L334.38 13.82L334.38 13.54C334.38 13.38 334.29 13.30 334.11 13.29L333.97 13.29C333.90 13.29 333.80 13.27 333.66 13.27C333.52 13.27 333.37 13.26 333.20 13.26L333.20 9.07L339.40 9.07L339.40 13.26C339.23 13.26 339.09 13.27 338.95 13.27C338.81 13.27 338.70 13.29 338.63 13.29L338.51 13.29C338.32 13.30 338.23 13.38 338.23 13.54L338.23 13.82L339.40 13.82L340.13 13.82L341.31 13.82L341.31 13.54C341.31 13.38 341.21 13.30 341.03 13.29L340.90 13.29C340.83 13.29 340.72 13.27 340.58 13.27C340.44 13.27 340.30 13.26 340.13 13.26L340.13 4.47C340.30 4.47 340.44 4.45 340.58 4.45C340.72 4.45 340.83 4.44 340.90 4.44Z"></path></g></svg>