<?xml version="1.0" encoding="UTF-8" standalone="no"?>
<!DOCTYPE svg PUBLIC "-//W3C//DTD SVG 1.1//EN" "http://www.w3.org/Graphics/SVG/1.1/DTD/svg11.dtd">
<svg version="1.1" xmlns="http://www.w3.org/2000/svg" xmlns:xlink="http://www.w3.org/1999/xlink" preserveAspectRatio="xMidYMid meet" viewBox="0 0 640 640" width="640" height="640"><defs><path d="M115.22 491.99C113.83 491.88 112.43 491.77 111.03 491.64C105.6 490.95 101.76 485.98 102.45 480.55C103.11 475.41 107.6 471.64 112.77 471.9C113.32 471.94 117.66 472.31 118.21 472.35C153.1 474.87 233.26 474.25 260.64 445.35C268.46 437.09 271.36 427.05 269.5 414.64C266.95 397.6 258.83 384.48 244.65 374.54C206.66 347.87 137.38 352.34 102.5 356.75C102.49 356.76 102.43 356.86 102.42 356.87C43.62 367.4 0 405.39 0 450.77C0 501.65 54.82 544.1 124.46 548.06C124.47 548.08 124.52 548.2 124.62 548.42L135.27 548.45C286.57 548.44 370.62 548.44 387.43 548.44C376.29 538.76 361.56 527.51 347.71 521.81C321.23 510.89 174.74 496.91 115.22 491.99Z" id="j99TiRw6W7"></path><path d="M508.04 91.72L510.35 91.93L512.63 92.23L514.88 92.61L517.1 93.06L519.3 93.6L521.46 94.22L523.59 94.9L525.69 95.67L527.75 96.5L529.77 97.41L531.75 98.38L533.7 99.43L535.6 100.53L537.46 101.71L539.27 102.94L541.03 104.24L542.75 105.6L544.42 107.02L546.04 108.49L547.6 110.02L549.11 111.6L550.57 113.23L551.96 114.92L553.3 116.65L554.58 118.44L555.8 120.26L556.95 122.14L558.04 124.05L559.06 126.01L560.01 128.01L560.9 130.04L561.71 132.11L562.45 134.22L563.12 136.36L563.71 138.54L564.23 140.74L564.66 142.97L565.02 145.24L566.42 145.36L567.82 145.5L569.22 145.63L570.62 145.77L572.03 145.91L573.44 146.05L574.85 146.2L576.26 146.35L577.67 146.5L579.09 146.65L580.51 146.81L581.93 146.97L583.36 147.13L584.78 147.3L586.21 147.47L587.64 147.64L589.08 147.82L590.51 148L591.95 148.18L593.39 148.36L594.84 148.55L596.28 148.74L597.73 148.94L599.18 149.14L600.63 149.34L602.09 149.54L603.55 149.75L605.01 149.96L606.47 150.17L607.94 150.39L609.41 150.61L610.88 150.84L612.35 151.06L613.82 151.3L615.3 151.53L616.78 151.77L618.27 152.01L619.75 152.25L621.24 152.5L622.73 152.75L624.41 153.08L625.99 153.47L627.49 153.93L628.9 154.45L630.22 155.03L631.46 155.68L632.6 156.39L633.67 157.17L634.65 158L635.54 158.89L636.35 159.85L637.08 160.86L637.73 161.93L638.29 163.06L638.77 164.25L639.17 165.49L639.5 166.79L639.74 168.14L639.9 169.54L639.99 171L639.99 172.51L639.92 174.07L639.78 175.68L639.56 177.35L639.26 179.06L638.89 180.82L638.44 182.63L637.92 184.48L637.33 186.38L636.67 188.33L635.93 190.32L635.12 192.36L634.24 194.44L633.3 196.56L632.28 198.72L631.19 200.93L630.04 203.17L628.82 205.46L627.53 207.78L626.18 210.15L408.86 272.08L408.5 272.2L408.14 272.34L407.8 272.49L407.46 272.66L407.12 272.83L406.8 273.02L406.49 273.22L406.18 273.42L405.89 273.64L405.6 273.87L405.32 274.11L405.06 274.36L404.8 274.62L404.55 274.89L404.32 275.16L404.09 275.44L403.88 275.73L403.67 276.03L403.48 276.34L403.3 276.65L403.13 276.97L402.97 277.29L402.83 277.62L402.69 277.96L402.57 278.3L402.46 278.65L402.36 279L402.28 279.35L402.21 279.71L402.15 280.07L402.11 280.43L402.08 280.8L402.06 281.17L402.06 281.54L402.07 281.91L402.09 282.29L402.13 282.66L402.19 283.04L402.26 283.41L402.34 283.79L402.45 284.18L402.57 284.57L402.7 284.94L402.85 285.31L403.01 285.67L403.19 286.02L403.37 286.36L403.57 286.69L403.79 287.01L404.01 287.32L404.25 287.63L404.49 287.92L404.75 288.2L405.01 288.47L405.29 288.73L405.58 288.98L405.87 289.22L406.18 289.44L406.49 289.65L406.81 289.86L407.13 290.05L407.47 290.22L407.81 290.39L408.15 290.54L408.51 290.67L408.87 290.8L409.23 290.91L409.6 291.01L409.97 291.09L410.35 291.16L410.73 291.21L411.11 291.25L411.5 291.27L411.89 291.28L412.28 291.27L412.67 291.25L413.06 291.21L413.46 291.15L413.86 291.08L414.25 290.99L609.34 235.39L606.39 239.33L603.32 243.33L600.13 247.39L596.82 251.5L593.39 255.67L589.85 259.89L586.2 264.16L582.43 268.47L578.56 272.83L574.57 277.24L570.49 281.68L566.29 286.17L562 290.69L557.6 295.24L553.1 299.83L548.51 304.45L543.82 309.09L539.04 313.76L534.17 318.46L529.2 323.17L524.15 327.91L519.01 332.66L513.78 337.42L508.48 342.2L503.09 346.99L497.62 351.79L492.07 356.59L486.45 361.4L480.75 366.21L474.98 371.02L469.14 375.82L463.23 380.62L457.25 385.42L451.21 390.2L445.1 394.97L438.94 399.73L432.71 404.48L426.42 409.21L420.07 413.91L413.68 418.6L469.62 506.92L536.65 506.92L537.51 506.94L538.36 506.99L539.19 507.08L540.02 507.2L540.84 507.35L541.64 507.53L542.44 507.74L543.22 507.98L543.98 508.26L544.74 508.56L545.47 508.89L546.2 509.24L546.9 509.63L547.59 510.04L548.26 510.47L548.92 510.93L549.55 511.42L550.17 511.92L550.76 512.45L551.34 513.01L551.89 513.58L552.42 514.18L552.93 514.79L553.41 515.43L553.87 516.08L554.31 516.75L554.72 517.44L555.1 518.15L555.46 518.87L555.79 519.61L556.09 520.36L556.36 521.13L556.6 521.91L556.82 522.7L557 523.51L557.15 524.32L557.27 525.15L557.35 525.99L557.4 526.83L557.42 527.69L557.4 528.55L557.35 529.39L557.27 530.23L557.15 531.06L557 531.88L556.82 532.68L556.6 533.47L556.36 534.25L556.09 535.02L555.79 535.77L555.46 536.51L555.1 537.23L554.72 537.94L554.31 538.63L553.87 539.3L553.41 539.96L552.93 540.59L552.42 541.21L551.89 541.8L551.34 542.38L550.76 542.93L550.17 543.46L549.55 543.97L548.92 544.45L548.26 544.91L547.59 545.35L546.9 545.76L546.2 546.14L545.47 546.5L544.74 546.83L543.98 547.13L543.22 547.4L542.44 547.64L541.64 547.85L540.84 548.04L540.02 548.19L539.19 548.3L538.36 548.39L537.51 548.44L536.65 548.46L417.84 548.46L345.78 464.55L344.94 465.08L344.1 465.6L343.26 466.13L342.42 466.66L341.58 467.18L340.73 467.7L339.89 468.23L339.04 468.75L338.2 469.27L337.35 469.79L336.51 470.31L335.66 470.83L334.82 471.35L333.97 471.87L333.12 472.39L332.28 472.9L331.43 473.42L330.58 473.93L329.73 474.45L328.88 474.96L328.03 475.47L327.18 475.98L326.33 476.5L325.48 477.01L324.62 477.52L323.77 478.02L322.92 478.53L322.07 479.04L321.21 479.55L320.36 480.05L319.5 480.56L318.65 481.06L317.79 481.56L316.93 482.06L316.08 482.57L315.22 483.07L314.36 483.57L313.51 484.07L312.65 484.57L311.79 485.06L311.45 485.26L311.11 485.45L310.77 485.63L310.42 485.82L310.07 486.01L309.72 486.19L309.36 486.37L309.01 486.55L308.64 486.73L308.28 486.9L307.91 487.08L307.54 487.25L307.16 487.42L306.79 487.59L306.41 487.75L306.02 487.92L305.64 488.08L305.25 488.24L304.86 488.4L304.46 488.56L304.06 488.72L303.66 488.87L303.26 489.02L302.85 489.18L302.44 489.32L302.03 489.47L301.62 489.62L301.2 489.76L300.78 489.91L300.36 490.05L299.93 490.19L299.5 490.33L299.07 490.46L298.64 490.6L298.2 490.73L297.77 490.86L297.32 490.99L296.88 491.12L296.44 491.25L295.99 491.37L294.48 491.15L292.95 490.94L291.42 490.72L289.88 490.51L288.34 490.29L286.78 490.08L285.21 489.86L283.64 489.65L282.05 489.44L280.47 489.23L278.87 489.01L277.26 488.8L275.65 488.59L274.04 488.38L272.41 488.17L270.78 487.97L269.15 487.76L267.51 487.55L265.86 487.35L264.21 487.14L262.55 486.94L260.89 486.73L259.23 486.53L257.56 486.33L255.89 486.13L254.22 485.92L252.54 485.73L250.86 485.53L249.18 485.33L247.49 485.13L245.81 484.93L244.12 484.74L242.43 484.55L240.74 484.35L239.05 484.16L237.36 483.97L235.67 483.78L233.97 483.59L232.28 483.4L230.59 483.21L231.92 482.82L233.24 482.42L234.55 482.01L235.86 481.59L237.15 481.16L238.44 480.72L239.72 480.27L240.99 479.8L242.25 479.33L243.5 478.85L244.75 478.36L245.98 477.86L247.2 477.34L248.41 476.82L249.61 476.28L250.79 475.73L251.97 475.17L253.13 474.61L254.28 474.02L255.42 473.43L256.55 472.83L257.66 472.21L258.76 471.58L259.84 470.94L260.91 470.29L261.96 469.63L263 468.95L264.03 468.26L265.04 467.56L266.03 466.85L267.01 466.12L267.97 465.38L268.91 464.63L269.84 463.87L270.74 463.09L271.63 462.3L272.51 461.49L273.36 460.67L274.2 459.84L275.01 459L275.91 458.03L276.78 457.05L277.62 456.07L278.43 455.07L279.21 454.05L279.97 453.03L280.7 452L281.4 450.95L282.07 449.89L282.72 448.82L283.34 447.74L283.93 446.65L284.49 445.55L285.02 444.44L285.53 443.31L286.01 442.18L286.46 441.03L286.88 439.87L287.28 438.71L287.64 437.53L287.98 436.34L288.29 435.14L288.58 433.92L288.83 432.7L289.06 431.47L289.26 430.23L289.43 428.97L289.57 427.71L289.69 426.43L289.78 425.15L289.83 423.85L289.87 422.54L289.87 421.23L289.84 419.9L289.79 418.56L289.71 417.22L289.6 415.86L289.46 414.49L289.3 413.11L289.1 411.72L288.84 410.05L288.54 408.4L288.22 406.76L287.87 405.14L287.48 403.54L287.07 401.95L286.63 400.38L286.16 398.83L285.67 397.29L285.14 395.78L284.58 394.27L284 392.79L283.39 391.32L282.74 389.87L282.07 388.44L281.37 387.02L280.65 385.62L279.89 384.24L279.1 382.87L278.29 381.53L277.45 380.2L276.57 378.89L275.67 377.59L274.75 376.32L273.79 375.06L272.8 373.82L271.79 372.59L270.75 371.39L269.68 370.2L268.58 369.03L267.45 367.88L266.3 366.75L265.11 365.63L263.9 364.53L262.66 363.45L261.39 362.39L260.09 361.35L258.77 360.33L257.42 359.32L256.04 358.33L253.16 356.39L250.2 354.55L247.16 352.8L244.04 351.14L240.85 349.58L237.6 348.1L234.29 346.71L230.92 345.4L227.49 344.18L224.01 343.03L220.49 341.96L216.93 340.97L213.33 340.05L209.7 339.2L206.03 338.42L202.35 337.71L198.64 337.07L194.91 336.48L191.18 335.96L187.43 335.49L183.68 335.09L179.93 334.73L176.18 334.43L172.44 334.18L168.72 333.97L165.01 333.82L161.32 333.7L157.66 333.63L154.02 333.59L150.42 333.6L146.86 333.64L143.33 333.71L139.85 333.81L136.43 333.94L133.05 334.1L129.73 334.28L126.48 334.48L123.29 334.71L120.17 334.95L117.13 335.21L121.52 329.16L126.08 323.08L130.81 316.98L135.7 310.87L140.76 304.75L145.99 298.63L151.4 292.52L156.99 286.43L162.75 280.36L168.69 274.32L174.81 268.32L181.12 262.37L187.62 256.48L194.31 250.64L201.18 244.88L208.26 239.19L215.52 233.59L222.99 228.08L230.65 222.67L238.52 217.37L246.59 212.19L254.86 207.13L263.35 202.2L272.05 197.41L280.96 192.77L290.08 188.28L299.42 183.95L308.98 179.8L318.77 175.82L328.77 172.02L339.01 168.42L349.47 165.01L360.16 161.82L371.08 158.84L382.24 156.08L393.63 153.55L405.27 151.27L417.14 149.22L429.26 147.44L441.62 145.91L441.96 143.62L442.37 141.36L442.87 139.14L443.44 136.94L444.1 134.77L444.82 132.64L445.62 130.54L446.5 128.48L447.44 126.46L448.46 124.48L449.54 122.54L450.69 120.65L451.9 118.8L453.17 116.99L454.51 115.24L455.91 113.53L457.36 111.87L458.88 110.27L460.44 108.72L462.06 107.23L463.74 105.8L465.46 104.42L467.23 103.1L469.06 101.85L470.92 100.66L472.83 99.54L474.79 98.48L476.78 97.49L478.81 96.57L480.89 95.73L483 94.95L485.14 94.25L487.32 93.63L489.53 93.09L491.77 92.62L494.03 92.24L496.33 91.94L498.65 91.72L501 91.59L503.36 91.54L505.71 91.59L508.04 91.72ZM500.75 133.13L499.47 133.33L498.22 133.61L497.01 133.96L495.82 134.38L494.67 134.86L493.55 135.42L492.47 136.03L491.44 136.71L490.45 137.45L489.5 138.24L488.6 139.08L487.76 139.98L486.97 140.93L486.23 141.92L485.55 142.96L484.94 144.03L484.38 145.15L483.89 146.3L483.48 147.49L483.13 148.71L482.85 149.95L482.65 151.23L482.53 152.53L482.49 153.85L482.53 155.17L482.65 156.46L482.85 157.74L483.13 158.99L483.48 160.2L483.89 161.39L484.38 162.54L484.94 163.66L485.55 164.74L486.23 165.77L486.97 166.76L487.76 167.71L488.6 168.61L489.5 169.45L490.45 170.24L491.44 170.98L492.47 171.66L493.55 172.27L494.67 172.83L495.82 173.31L497.01 173.73L498.22 174.08L499.47 174.36L500.75 174.56L502.04 174.68L503.36 174.72L504.68 174.68L505.98 174.56L507.26 174.36L508.5 174.08L509.72 173.73L510.91 173.31L512.06 172.83L513.18 172.27L514.25 171.66L515.29 170.98L516.28 170.24L517.23 169.45L518.12 168.61L518.97 167.71L519.76 166.76L520.5 165.77L521.18 164.74L521.79 163.66L522.35 162.54L522.83 161.39L523.25 160.2L523.6 158.99L523.88 157.74L524.08 156.46L524.2 155.17L524.24 153.85L524.2 152.53L524.08 151.23L523.88 149.95L523.6 148.71L523.25 147.49L522.83 146.3L522.35 145.15L521.79 144.03L521.18 142.96L520.5 141.92L519.76 140.93L518.97 139.98L518.12 139.08L517.23 138.24L516.28 137.45L515.29 136.71L514.25 136.03L513.18 135.42L512.06 134.86L510.91 134.38L509.72 133.96L508.5 133.61L507.26 133.33L505.98 133.13L504.68 133.01L503.36 132.97L502.04 133.01L500.75 133.13Z" id="b3sTp8jjwB"></path></defs><g><g><g><use xlink:href="#j99TiRw6W7" opacity="1" fill="#38b2ac" fill-opacity="1"></use><g><use xlink:href="#j99TiRw6W7" opacity="1" fill-opacity="0" stroke="#000000" stroke-width="1" stroke-opacity="0"></use></g></g><g><use xlink:href="#b3sTp8jjwB" opacity="1" fill="#38b2ac" fill-opacity="1"></use><g><use xlink:href="#b3sTp8jjwB" opacity="1" fill-opacity="0" stroke="#000000" stroke-width="1" stroke-opacity="0"></use></g></g></g></g></svg>