<svg data-v-423bf9ae="" xmlns="http://www.w3.org/2000/svg" viewBox="0 0 84.0419297409285 60" class="icon"><!----><!----><!----><!----><g data-v-423bf9ae="" id="98de6e08-73c5-4be3-891f-e5036a49996d" transform="matrix(0.8584796190261841,0,0,0.8584796190261841,-0.6060856580734253,-13.164786338806152)" stroke="none" fill="black"><path d="M53.893 81.15c-4.05-1.67-26.459-3.809-35.562-4.562a32.449 32.449 0 0 1-.641-.053 1.517 1.517 0 0 1 .266-3.02l.831.07c5.337.385 17.599.29 21.787-4.13 1.196-1.264 1.64-2.8 1.356-4.698-.39-2.606-1.633-4.613-3.801-6.134-5.812-4.079-16.409-3.395-21.744-2.721l-.012.019C7.378 57.531.706 63.342.706 70.283c0 7.783 8.385 14.276 19.037 14.882l.025.055 1.63.005 38.571-.002c-1.705-1.48-3.957-3.201-6.076-4.073z"></path><path d="M63.247 42.95l33.241-9.473c2.829-4.857 2.979-8.185-.527-8.779-3.044-.517-5.981-.89-8.828-1.15-.644-4.639-4.615-8.213-9.431-8.213-4.851 0-8.847 3.627-9.444 8.316-25.467 2.843-40.835 16.656-49.636 28.956 6.13-.542 15.464-.521 21.248 3.537 2.845 1.995 4.546 4.744 5.058 8.167.424 2.841-.301 5.273-2.155 7.231-1.646 1.738-4.081 2.915-6.795 3.704 3.447.381 6.931.805 10.003 1.248.917-.254 1.734-.571 2.417-.965a166.368 166.368 0 0 0 5.2-3.138L64.62 85.226h18.174a3.176 3.176 0 1 0 0-6.353H72.54l-8.557-13.511c13.106-9.529 24.041-20.054 29.929-28.023l-29.841 8.504a1.505 1.505 0 0 1-.824-2.893zm14.455-21.278a3.193 3.193 0 1 1 0 6.386 3.193 3.193 0 0 1 0-6.386z"></path></g><!----></svg>