<?xml version="1.0" standalone="no"?>
<!DOCTYPE svg PUBLIC "-//W3C//DTD SVG 20010904//EN"
 "http://www.w3.org/TR/2001/REC-SVG-20010904/DTD/svg10.dtd">
<svg version="1.0" xmlns="http://www.w3.org/2000/svg"
 width="700.000000pt" height="700.000000pt" viewBox="0 0 700.000000 700.000000"
 preserveAspectRatio="xMidYMid meet">
<metadata>
Created by potrace 1.11, written by Peter Selinger 2001-2013
</metadata>
<g transform="translate(0.000000,700.000000) scale(0.100000,-0.100000)"
fill="#000000" stroke="none">
<path d="M5370 5984 c-268 -57 -477 -265 -530 -526 -10 -53 -14 -58 -38 -59
-29 -1 -31 -1 -192 -25 -111 -16 -222 -36 -330 -59 -14 -3 -34 -7 -45 -9 -11
-3 -49 -12 -85 -21 -36 -8 -73 -18 -82 -20 -387 -90 -981 -340 -1328 -559
-279 -176 -478 -325 -710 -531 -79 -69 -333 -327 -405 -410 -39 -44 -72 -82
-75 -85 -12 -11 -198 -248 -233 -296 l-37 -51 43 5 c112 15 695 5 767 -13 8
-2 38 -6 65 -10 74 -9 250 -51 330 -78 157 -55 321 -148 416 -238 269 -255
348 -671 177 -929 -92 -138 -231 -237 -447 -319 l-103 -38 79 -8 c43 -4 87 -9
98 -11 11 -2 45 -6 75 -9 30 -3 66 -7 80 -9 14 -3 52 -7 85 -11 81 -10 92 -12
155 -21 30 -4 84 -8 120 -9 81 0 140 27 389 178 l174 105 100 -116 c54 -65
123 -144 151 -177 29 -33 161 -187 294 -342 l242 -282 683 2 684 2 49 30 c102
64 139 191 85 295 -27 52 -50 73 -106 103 -39 20 -54 21 -434 22 -354 1 -394
3 -405 17 -6 10 -33 52 -60 95 -27 43 -63 101 -81 128 -18 28 -119 187 -225
355 -106 168 -201 317 -211 332 -11 14 -19 30 -19 35 0 5 21 25 48 44 26 18
54 39 62 46 8 6 65 49 125 95 61 45 117 88 125 94 8 7 65 52 125 100 61 48
115 92 120 98 6 6 28 24 50 41 33 25 307 257 341 290 6 5 51 46 100 90 216
195 475 453 683 680 133 145 354 419 342 423 -5 1 -143 -36 -307 -83 -164 -48
-306 -88 -314 -90 -8 -2 -40 -11 -70 -20 -30 -9 -62 -18 -70 -20 -18 -4 -842
-239 -1035 -295 -77 -22 -165 -48 -195 -56 -30 -9 -73 -21 -96 -29 -65 -20
-117 -8 -148 37 -32 46 -13 126 37 152 25 13 257 81 462 136 17 5 86 25 155
45 69 20 132 38 140 40 32 8 1217 345 1245 354 17 6 111 33 210 61 99 28 183
54 187 58 16 17 98 192 118 252 54 165 29 290 -71 340 -41 22 -234 57 -404 75
-33 4 -67 8 -75 10 -8 2 -46 7 -85 11 -38 4 -79 8 -90 10 -11 1 -29 3 -41 3
-17 1 -24 12 -37 66 -9 36 -26 87 -38 113 -12 26 -23 49 -23 52 -5 18 -66 101
-104 142 -87 93 -202 162 -322 193 -86 22 -228 27 -310 9z m233 -462 c114 -51
160 -189 103 -306 -67 -136 -240 -168 -357 -64 -47 41 -68 96 -66 174 2 56 7
77 30 111 64 100 180 133 290 85z"/>
<path d="M1577 3135 c-1 -2 -60 -5 -132 -9 -71 -4 -148 -9 -170 -11 -117 -12
-154 -17 -195 -27 -25 -5 -58 -12 -73 -15 -57 -9 -245 -76 -337 -119 -326
-154 -540 -374 -632 -649 -49 -145 -47 -334 4 -485 92 -271 334 -511 658 -655
104 -46 253 -97 340 -114 30 -6 66 -14 80 -17 138 -29 267 -32 1680 -32 l1434
0 -34 30 c-52 45 -178 140 -235 175 -118 74 -194 103 -355 137 -87 18 -119 24
-295 52 -16 2 -41 6 -55 9 -14 2 -47 7 -75 10 -27 3 -61 7 -75 10 -14 2 -43 7
-65 10 -22 2 -56 7 -75 10 -19 2 -60 7 -91 10 -31 3 -66 7 -77 10 -19 3 -46 6
-182 20 -25 2 -61 6 -80 9 -66 9 -125 16 -185 21 -33 3 -76 8 -95 10 -57 7
-231 25 -290 30 -30 2 -75 7 -100 9 -25 3 -74 8 -110 11 -71 6 -131 12 -230
21 -105 9 -140 13 -223 19 -44 4 -88 8 -99 10 -84 17 -115 127 -52 186 25 23
30 24 152 20 286 -9 614 -3 727 13 17 3 67 10 112 16 45 6 92 13 105 16 13 2
37 7 53 10 17 3 65 14 107 25 452 114 619 338 507 673 -28 83 -71 155 -131
221 -52 57 -179 146 -258 182 -156 70 -364 118 -605 139 -60 5 -343 12 -348 9z"/>
</g>
</svg>
